<svg width="96" height="96" viewBox="0 0 96 96" fill="none" xmlns="http://www.w3.org/2000/svg">
<path d="M48.3611 48.568C47.0171 48.568 45.8971 48.12 45.0011 47.224C44.1691 46.264 43.7531 45.08 43.7531 43.672C43.7531 42.264 44.2651 40.984 45.2891 39.832C46.3131 38.68 47.5291 38.104 48.9371 38.104C50.1531 38.104 51.1771 38.584 52.0091 39.544C52.9051 40.44 53.3531 41.56 53.3531 42.904C53.3531 44.504 52.8731 45.848 51.9131 46.936C50.9531 48.024 49.7691 48.568 48.3611 48.568ZM36.7451 60.664C35.5291 60.664 34.4731 60.216 33.5771 59.32C32.6811 58.424 32.2331 57.4 32.2331 56.248C32.2331 54.968 32.6811 53.912 33.5771 53.08C34.4731 52.184 35.5291 51.736 36.7451 51.736H59.1131C60.3931 51.736 61.4811 52.184 62.3771 53.08C63.2731 53.912 63.7211 54.968 63.7211 56.248C63.7211 57.4 63.2731 58.424 62.3771 59.32C61.4811 60.216 60.3931 60.664 59.1131 60.664H36.7451ZM46.9211 74.296C45.5771 74.296 44.4891 73.816 43.6571 72.856C42.8251 71.896 42.4091 70.712 42.4091 69.304C42.4091 67.896 42.8891 66.648 43.8491 65.56C44.8731 64.408 46.0891 63.832 47.4971 63.832C48.7131 63.832 49.7691 64.28 50.6651 65.176C51.5611 66.072 52.0091 67.192 52.0091 68.536C52.0091 70.136 51.4971 71.512 50.4731 72.664C49.5131 73.752 48.3291 74.296 46.9211 74.296Z" fill="white"/>
</svg>
