<svg width="96" height="96" viewBox="0 0 96 96" fill="none" xmlns="http://www.w3.org/2000/svg">
<path d="M34.1113 64.24C32.4793 64.24 31.0073 63.824 29.6953 62.992C28.4153 62.128 27.3913 60.88 26.6233 59.248C25.8873 57.616 25.5193 55.664 25.5193 53.392C25.5193 50.64 25.9513 48.288 26.8153 46.336C27.6793 44.384 28.8793 42.912 30.4153 41.92C31.9513 40.896 33.7273 40.384 35.7433 40.384C37.3433 40.384 39.0553 40.752 40.8793 41.488L41.1193 34.048C41.1513 33.408 41.3913 32.864 41.8393 32.416C42.3193 31.936 42.8793 31.696 43.5193 31.696C44.1273 31.696 44.6553 31.936 45.1033 32.416C45.5833 32.864 45.8073 33.44 45.7753 34.144L45.1033 62.08C45.0713 62.72 44.8313 63.248 44.3833 63.664C43.9353 64.08 43.3913 64.288 42.7513 64.288C42.1433 64.288 41.6153 64.112 41.1673 63.76C40.7513 63.408 40.5433 62.944 40.5433 62.368V61.504C39.7113 62.272 38.7353 62.928 37.6153 63.472C36.4953 63.984 35.3273 64.24 34.1113 64.24ZM34.4953 59.92C35.5833 59.92 36.5913 59.696 37.5193 59.248C38.4793 58.768 39.2313 58.192 39.7753 57.52C40.3193 56.848 40.6073 56.224 40.6393 55.648L40.8313 46.192C40.2553 45.808 39.5193 45.472 38.6233 45.184C37.7273 44.864 36.8633 44.704 36.0313 44.704C34.0793 44.704 32.6073 45.44 31.6153 46.912C30.6233 48.352 30.1273 50.464 30.1273 53.248C30.1273 55.552 30.5113 57.248 31.2793 58.336C32.0793 59.392 33.1513 59.92 34.4953 59.92ZM68.8854 64.288C68.5654 64.288 68.2454 64.224 67.9254 64.096C67.6374 63.968 67.3974 63.792 67.2054 63.568L60.3894 55.216L52.5174 63.568C52.1014 64.016 51.5414 64.24 50.8374 64.24C50.2294 64.24 49.7014 64.016 49.2534 63.568C48.8054 63.088 48.5814 62.544 48.5814 61.936C48.5814 61.264 48.8054 60.704 49.2534 60.256L57.4134 51.856L50.9814 44.176C50.7894 43.952 50.6294 43.696 50.5014 43.408C50.4054 43.12 50.3574 42.864 50.3574 42.64C50.3574 42 50.5814 41.456 51.0294 41.008C51.4774 40.528 52.0054 40.288 52.6134 40.288C53.3174 40.288 53.8934 40.544 54.3414 41.056L60.6774 48.832L68.0694 41.104C68.5494 40.624 69.1094 40.384 69.7494 40.384C70.3574 40.384 70.8854 40.624 71.3334 41.104C71.8134 41.552 72.0534 42.08 72.0534 42.688C72.0534 42.976 71.9894 43.264 71.8614 43.552C71.7334 43.84 71.5734 44.08 71.3814 44.272L63.7014 52.144L70.7094 60.544C71.0294 60.96 71.1894 61.44 71.1894 61.984C71.1894 62.624 70.9654 63.168 70.5174 63.616C70.0694 64.064 69.5254 64.288 68.8854 64.288Z" fill="white"/>
</svg>
