<svg width="96" height="96" viewBox="0 0 96 96" fill="none" xmlns="http://www.w3.org/2000/svg">
<path d="M17.8952 64.288C17.2872 64.288 16.7432 64.064 16.2632 63.616C15.8152 63.168 15.5912 62.656 15.5912 62.08V44.704H13.3832C12.8072 44.704 12.2952 44.48 11.8472 44.032C11.3992 43.584 11.1752 43.072 11.1752 42.496C11.1752 41.888 11.3992 41.36 11.8472 40.912C12.2952 40.464 12.7912 40.24 13.3352 40.24H15.6392C15.7672 37.2 16.5832 35.072 18.0872 33.856C19.6232 32.608 22.0712 31.984 25.4312 31.984C26.3272 31.984 27.0152 32.144 27.4952 32.464C27.9752 32.784 28.2152 33.36 28.2152 34.192C28.2152 34.832 28.0072 35.376 27.5912 35.824C27.2072 36.24 26.6632 36.448 25.9592 36.448C24.5192 36.448 23.4152 36.544 22.6472 36.736C21.9112 36.896 21.3512 37.248 20.9672 37.792C20.5832 38.336 20.3432 39.152 20.2472 40.24L25.1432 40.288C25.6552 40.288 26.1352 40.512 26.5832 40.96C27.0632 41.408 27.3032 41.92 27.3032 42.496C27.3032 43.072 27.0792 43.584 26.6312 44.032C26.2152 44.48 25.7192 44.704 25.1432 44.704H20.1992V62.08C20.1992 62.656 19.9592 63.168 19.4792 63.616C19.0312 64.064 18.5032 64.288 17.8952 64.288ZM39.3651 68.992C38.6291 68.992 37.9731 68.672 37.3971 68.032C32.2451 61.76 29.6691 55.04 29.6691 47.872C29.6691 44.096 30.4371 40.512 31.9731 37.12C33.5091 33.696 35.5891 30.752 38.2131 28.288C38.8211 27.712 39.3971 27.424 39.9411 27.424C40.5491 27.424 41.0771 27.664 41.5251 28.144C42.0051 28.592 42.2451 29.136 42.2451 29.776C42.2451 30.512 41.9571 31.104 41.3811 31.552C39.3331 33.184 37.6371 35.52 36.2931 38.56C34.9491 41.6 34.2771 44.704 34.2771 47.872C34.2771 51.232 34.9331 54.464 36.2451 57.568C37.5891 60.672 39.1571 63.152 40.9491 65.008C41.4291 65.488 41.6691 66.064 41.6691 66.736C41.6691 67.344 41.4291 67.872 40.9491 68.32C40.4691 68.768 39.9411 68.992 39.3651 68.992ZM64.0573 64.288C63.7373 64.288 63.4173 64.224 63.0973 64.096C62.8093 63.968 62.5693 63.792 62.3773 63.568L55.5613 55.216L47.6893 63.568C47.2733 64.016 46.7133 64.24 46.0093 64.24C45.4013 64.24 44.8733 64.016 44.4253 63.568C43.9773 63.088 43.7533 62.544 43.7533 61.936C43.7533 61.264 43.9773 60.704 44.4253 60.256L52.5853 51.856L46.1533 44.176C45.9613 43.952 45.8013 43.696 45.6733 43.408C45.5773 43.12 45.5293 42.864 45.5293 42.64C45.5293 42 45.7533 41.456 46.2013 41.008C46.6493 40.528 47.1773 40.288 47.7853 40.288C48.4893 40.288 49.0653 40.544 49.5133 41.056L55.8493 48.832L63.2413 41.104C63.7213 40.624 64.2813 40.384 64.9213 40.384C65.5293 40.384 66.0573 40.624 66.5053 41.104C66.9853 41.552 67.2253 42.08 67.2253 42.688C67.2253 42.976 67.1613 43.264 67.0333 43.552C66.9053 43.84 66.7453 44.08 66.5533 44.272L58.8733 52.144L65.8813 60.544C66.2013 60.96 66.3613 61.44 66.3613 61.984C66.3613 62.624 66.1373 63.168 65.6893 63.616C65.2413 64.064 64.6973 64.288 64.0573 64.288ZM72.0366 68.992C71.4606 68.992 70.9326 68.768 70.4526 68.32C69.9726 67.872 69.7326 67.344 69.7326 66.736C69.7326 66.064 69.9726 65.488 70.4526 65.008C72.2446 63.152 73.7966 60.672 75.1086 57.568C76.4526 54.464 77.1246 51.232 77.1246 47.872C77.1246 44.704 76.4526 41.6 75.1086 38.56C73.7646 35.52 72.0686 33.184 70.0206 31.552C69.4446 31.104 69.1566 30.512 69.1566 29.776C69.1566 29.136 69.3806 28.592 69.8286 28.144C70.3086 27.664 70.8526 27.424 71.4606 27.424C72.0046 27.424 72.5806 27.712 73.1886 28.288C75.8126 30.752 77.8926 33.696 79.4286 37.12C80.9646 40.512 81.7326 44.096 81.7326 47.872C81.7326 55.04 79.1566 61.76 74.0046 68.032C73.4286 68.672 72.7726 68.992 72.0366 68.992Z" fill="white"/>
</svg>
