<svg width="96" height="96" viewBox="0 0 96 96" fill="none" xmlns="http://www.w3.org/2000/svg">
<path d="M23.0546 52.288C22.4466 52.288 21.9026 52.08 21.4226 51.664C20.9746 51.216 20.7506 50.704 20.7506 50.128V22.288C20.7506 21.648 20.9586 21.12 21.3746 20.704C21.8226 20.256 22.3826 20.032 23.0546 20.032C23.6626 20.032 24.1906 20.256 24.6386 20.704C25.1186 21.152 25.3586 21.68 25.3586 22.288V50.128C25.3586 50.704 25.1186 51.216 24.6386 51.664C24.1586 52.08 23.6306 52.288 23.0546 52.288ZM34.6864 26.32C34.0784 26.32 33.5344 26.08 33.0544 25.6C32.6064 25.12 32.3984 24.576 32.4304 23.968L32.4784 22.192C32.5104 21.584 32.7504 21.056 33.1984 20.608C33.6464 20.16 34.1744 19.936 34.7824 19.936C35.3904 19.936 35.9184 20.176 36.3664 20.656C36.8464 21.136 37.0704 21.664 37.0384 22.24L36.9904 24.064C36.9584 24.704 36.7184 25.248 36.2704 25.696C35.8544 26.112 35.3264 26.32 34.6864 26.32ZM34.4464 52.288C33.8064 52.288 33.2464 52.064 32.7664 51.616C32.3184 51.136 32.0944 50.576 32.0944 49.936L32.3344 30.832C32.3344 30.192 32.5584 29.648 33.0064 29.2C33.4864 28.72 34.0464 28.48 34.6864 28.48C35.3584 28.48 35.9184 28.72 36.3664 29.2C36.8144 29.648 37.0384 30.192 37.0384 30.832L36.7984 49.936C36.7984 50.576 36.5584 51.136 36.0784 51.616C35.6304 52.064 35.0864 52.288 34.4464 52.288ZM46.0703 52.288C45.4623 52.288 44.9183 52.064 44.4383 51.616C43.9903 51.168 43.7663 50.64 43.7663 50.032V30.64C43.7663 30.032 43.9903 29.504 44.4383 29.056C44.9183 28.576 45.4623 28.336 46.0703 28.336C46.7103 28.336 47.2543 28.576 47.7023 29.056C48.1503 29.504 48.3743 30.032 48.3743 30.64V34C50.3583 30.224 52.9983 28.336 56.2943 28.336C57.6063 28.336 58.7423 28.72 59.7023 29.488C60.6943 30.256 61.3983 31.408 61.8143 32.944C63.8623 29.872 66.3583 28.336 69.3023 28.336C71.2863 28.336 72.8543 29.104 74.0063 30.64C75.1583 32.144 75.7343 34.416 75.7343 37.456V50.032C75.7343 50.64 75.4943 51.168 75.0143 51.616C74.5663 52.064 74.0383 52.288 73.4303 52.288C72.7903 52.288 72.2463 52.064 71.7983 51.616C71.3503 51.168 71.1263 50.64 71.1263 50.032V37.168C71.1263 35.696 70.9183 34.592 70.5023 33.856C70.0863 33.12 69.4303 32.752 68.5343 32.752C67.6063 32.752 66.6783 33.12 65.7502 33.856C64.8223 34.592 64.0543 35.6 63.4463 36.88C62.8703 38.16 62.5823 39.568 62.5823 41.104V50.032C62.5823 50.672 62.3583 51.216 61.9103 51.664C61.4623 52.08 60.9183 52.288 60.2783 52.288C59.6703 52.288 59.1263 52.064 58.6463 51.616C58.1983 51.168 57.9743 50.64 57.9743 50.032V37.168C57.9743 35.632 57.7823 34.512 57.3983 33.808C57.0463 33.104 56.4543 32.752 55.6223 32.752C54.5983 32.752 53.5903 33.168 52.5983 34C51.6063 34.8 50.7423 35.776 50.0063 36.928C49.4303 37.888 48.9983 38.848 48.7103 39.808C48.4543 40.768 48.3263 41.824 48.3263 42.976L48.3743 50.032C48.3743 50.64 48.1503 51.168 47.7023 51.616C47.2543 52.064 46.7103 52.288 46.0703 52.288ZM33.306 80.144C33.146 80.144 32.986 80.112 32.826 80.048C32.682 79.984 32.562 79.896 32.466 79.784L29.058 75.608L25.122 79.784C24.914 80.008 24.634 80.12 24.282 80.12C23.978 80.12 23.714 80.008 23.49 79.784C23.266 79.544 23.154 79.272 23.154 78.968C23.154 78.632 23.266 78.352 23.49 78.128L27.57 73.928L24.354 70.088C24.258 69.976 24.178 69.848 24.114 69.704C24.066 69.56 24.042 69.432 24.042 69.32C24.042 69 24.154 68.728 24.378 68.504C24.602 68.264 24.866 68.144 25.17 68.144C25.522 68.144 25.81 68.272 26.034 68.528L29.202 72.416L32.898 68.552C33.138 68.312 33.418 68.192 33.738 68.192C34.042 68.192 34.306 68.312 34.53 68.552C34.77 68.776 34.89 69.04 34.89 69.344C34.89 69.488 34.858 69.632 34.794 69.776C34.73 69.92 34.65 70.04 34.554 70.136L30.714 74.072L34.218 78.272C34.378 78.48 34.458 78.72 34.458 78.992C34.458 79.312 34.346 79.584 34.122 79.808C33.898 80.032 33.626 80.144 33.306 80.144ZM50.3036 74.96C50.6236 74.112 51.0156 73.384 51.4796 72.776H38.6156V70.808H51.4796C51.0316 70.2 50.6476 69.472 50.3276 68.624H52.1516C53.1436 69.792 54.2316 70.68 55.4156 71.288V72.32C54.2316 72.896 53.1436 73.776 52.1516 74.96H50.3036ZM65.6396 80.144C64.5996 80.144 63.6556 79.8 62.8076 79.112C61.9756 78.408 61.3196 77.472 60.8396 76.304C60.3756 75.136 60.1436 73.88 60.1436 72.536C60.1436 71.08 60.4076 69.712 60.9356 68.432C61.4796 67.136 62.2076 66.104 63.1196 65.336C64.0476 64.552 65.0556 64.16 66.1436 64.16C67.1836 64.16 68.1196 64.512 68.9516 65.216C69.7836 65.904 70.4316 66.832 70.8956 68C71.3756 69.168 71.6156 70.432 71.6156 71.792C71.6156 73.264 71.3436 74.64 70.7996 75.92C70.2716 77.2 69.5436 78.224 68.6156 78.992C67.7036 79.76 66.7116 80.144 65.6396 80.144ZM65.6396 77.84C66.2956 77.84 66.9036 77.568 67.4636 77.024C68.0396 76.48 68.4956 75.752 68.8316 74.84C69.1836 73.912 69.3596 72.912 69.3596 71.84C69.3596 70.896 69.2156 70.016 68.9276 69.2C68.6556 68.368 68.2716 67.704 67.7756 67.208C67.2796 66.712 66.7356 66.464 66.1436 66.464C65.4876 66.464 64.8716 66.736 64.2956 67.28C63.7196 67.824 63.2636 68.56 62.9276 69.488C62.5916 70.416 62.4236 71.416 62.4236 72.488C62.4236 73.416 62.5596 74.296 62.8316 75.128C63.1036 75.944 63.4876 76.6 63.9836 77.096C64.4796 77.592 65.0316 77.84 65.6396 77.84Z" fill="white"/>
</svg>
