<svg width="96" height="96" viewBox="0 0 96 96" fill="none" xmlns="http://www.w3.org/2000/svg">
<path d="M73.4756 68.728C74.5636 68.728 75.6196 68.568 76.6436 68.248C77.6676 67.928 78.6276 67.544 79.5236 67.096V77.368C78.4356 78.008 76.9316 78.584 75.0116 79.096C73.0916 79.672 71.1396 79.96 69.1556 79.96C64.7396 79.96 61.2196 78.744 58.5956 76.312C56.0356 73.88 54.7556 69.976 54.7556 64.6V37.528H38.9156V79H24.6116V37.528H13.6676V31.384L22.0196 26.584H80.0996V37.528H69.0596V64.024C69.0596 65.624 69.4756 66.808 70.3076 67.576C71.2036 68.344 72.2596 68.728 73.4756 68.728Z" fill="white"/>
</svg>
