<svg width="96" height="96" viewBox="0 0 96 96" fill="none" xmlns="http://www.w3.org/2000/svg">
  <path
    d="M47.9794 72.184C46.7634 72.184 45.7074 71.736 44.8114 70.84C43.9154 69.944 43.4674 68.888 43.4674 67.672V60.088H35.7874C34.5074 60.088 33.4194 59.64 32.5234 58.744C31.6274 57.848 31.1794 56.76 31.1794 55.48C31.1794 54.2 31.6274 53.144 32.5234 52.312C33.4194 51.416 34.5074 50.968 35.7874 50.968H43.4674V44.248C43.4674 42.968 43.9154 41.912 44.8114 41.08C45.7074 40.184 46.7634 39.736 47.9794 39.736C49.2594 39.736 50.3154 40.184 51.1474 41.08C52.0434 41.912 52.4914 42.968 52.4914 44.248V50.968H60.2674C61.5474 50.968 62.6034 51.416 63.4354 52.312C64.3314 53.144 64.7794 54.2 64.7794 55.48C64.7794 56.76 64.3314 57.848 63.4354 58.744C62.6034 59.64 61.5474 60.088 60.2674 60.088H52.4914V67.672C52.4914 68.888 52.0434 69.944 51.1474 70.84C50.3154 71.736 49.2594 72.184 47.9794 72.184Z"
    fill="white" />
</svg>