<svg width="96" height="96" viewBox="0 0 96 96" fill="none" xmlns="http://www.w3.org/2000/svg">
<path d="M39.7095 69.112C38.4295 69.112 37.3415 68.664 36.4455 67.768C35.6135 66.808 35.1975 65.784 35.1975 64.696C35.1975 63.416 35.6455 62.328 36.5415 61.432L41.8215 56.248L37.2135 51.736C36.3815 50.904 35.9655 49.848 35.9655 48.568C35.9655 47.416 36.4135 46.392 37.3095 45.496C38.2055 44.536 39.2295 44.056 40.3815 44.056C41.6615 44.056 42.7495 44.504 43.6455 45.4L48.1575 49.816L53.2455 44.728C54.0775 43.896 55.0695 43.48 56.2215 43.48C57.7575 43.48 58.9095 43.928 59.6775 44.824C60.4455 45.656 60.8295 46.744 60.8295 48.088C60.8295 49.304 60.4455 50.296 59.6775 51.064L54.4935 56.248L59.5815 61.336C60.4135 62.168 60.8295 63.224 60.8295 64.504C60.8295 65.848 60.3815 66.936 59.4855 67.768C58.6535 68.6 57.6295 69.016 56.4135 69.016C55.1975 69.016 54.1415 68.568 53.2455 67.672L48.0615 62.584L42.7815 67.768C41.8855 68.664 40.8615 69.112 39.7095 69.112Z" fill="white"/>
</svg>
