<svg width="96" height="96" viewBox="0 0 96 96" fill="none" xmlns="http://www.w3.org/2000/svg">
<path d="M36.2598 71.432C35.2998 71.432 34.5318 71.192 33.9558 70.712C33.3798 70.184 32.9958 69.488 32.8038 68.624L26.8278 40.184C26.6838 39.464 26.6118 38.888 26.6118 38.456C26.6118 37.688 26.9478 36.992 27.6198 36.368C28.2918 35.744 29.0838 35.432 29.9958 35.432C30.9078 35.432 31.6518 35.696 32.2278 36.224C32.8038 36.752 33.1878 37.448 33.3798 38.312L37.0518 56.528L43.5318 37.952C43.7718 37.184 44.2038 36.584 44.8278 36.152C45.4998 35.672 46.2198 35.432 46.9878 35.432C48.8598 35.432 50.0118 36.272 50.4438 37.952L54.9078 56.888L60.5958 38.168C60.8358 37.448 61.2678 36.824 61.8918 36.296C62.5638 35.768 63.2598 35.504 63.9798 35.504C64.8918 35.504 65.6838 35.816 66.3558 36.44C67.0758 37.064 67.4358 37.832 67.4358 38.744C67.4358 39.224 67.3638 39.68 67.2198 40.112L58.0038 68.84C57.4278 70.568 56.3238 71.432 54.6918 71.432C52.9158 71.432 51.7878 70.544 51.3078 68.768L46.4838 49.904L39.5718 68.912C39.2838 69.728 38.8278 70.352 38.2038 70.784C37.6278 71.216 36.9798 71.432 36.2598 71.432Z" fill="white"/>
</svg>
