<svg width="96" height="96" viewBox="0 0 96 96" fill="none" xmlns="http://www.w3.org/2000/svg">
<path d="M60.5196 71.432C60.0396 71.432 59.5596 71.336 59.0796 71.144C58.6476 70.952 58.2876 70.688 57.9996 70.352L47.7756 57.824L35.9676 70.352C35.3436 71.024 34.5036 71.36 33.4476 71.36C32.5356 71.36 31.7436 71.024 31.0716 70.352C30.3996 69.632 30.0636 68.816 30.0636 67.904C30.0636 66.896 30.3996 66.056 31.0716 65.384L43.3116 52.784L33.6636 41.264C33.3756 40.928 33.1356 40.544 32.9436 40.112C32.7996 39.68 32.7276 39.296 32.7276 38.96C32.7276 38 33.0636 37.184 33.7356 36.512C34.4076 35.792 35.1996 35.432 36.1116 35.432C37.1676 35.432 38.0316 35.816 38.7036 36.584L48.2076 48.248L59.2956 36.656C60.0156 35.936 60.8556 35.576 61.8156 35.576C62.7276 35.576 63.5196 35.936 64.1916 36.656C64.9116 37.328 65.2716 38.12 65.2716 39.032C65.2716 39.464 65.1756 39.896 64.9836 40.328C64.7916 40.76 64.5516 41.12 64.2636 41.408L52.7436 53.216L63.2556 65.816C63.7356 66.44 63.9756 67.16 63.9756 67.976C63.9756 68.936 63.6396 69.752 62.9676 70.424C62.2956 71.096 61.4796 71.432 60.5196 71.432Z" fill="white"/>
</svg>
