<svg width="96" height="96" viewBox="0 0 96 96" fill="none" xmlns="http://www.w3.org/2000/svg">
<path d="M41.5197 84.32C40.6557 84.32 39.9117 83.96 39.2877 83.24C38.6637 82.568 38.3517 81.752 38.3517 80.792C38.3517 80.36 38.4717 79.856 38.7117 79.28L44.9757 65.816L32.0877 40.688C31.7997 40.112 31.6557 39.536 31.6557 38.96C31.6557 38 31.9917 37.184 32.6637 36.512C33.3837 35.792 34.2477 35.432 35.2557 35.432C36.0237 35.432 36.6957 35.648 37.2717 36.08C37.8477 36.512 38.2797 37.016 38.5677 37.592L48.7197 57.68L57.7917 37.592C58.0797 36.968 58.5117 36.44 59.0877 36.008C59.7117 35.576 60.3837 35.36 61.1037 35.36C61.9677 35.36 62.7117 35.696 63.3357 36.368C63.9597 37.04 64.2717 37.88 64.2717 38.888C64.2717 39.464 64.1757 39.944 63.9837 40.328L44.7597 82.088C44.4717 82.76 44.0397 83.288 43.4637 83.672C42.8877 84.104 42.2397 84.32 41.5197 84.32Z" fill="white"/>
</svg>
