<svg width="96" height="96" viewBox="0 0 96 96" fill="none" xmlns="http://www.w3.org/2000/svg">
<path d="M36.5264 71C35.4224 71 34.5584 70.664 33.9344 69.992C33.3584 69.32 33.0704 68.504 33.0704 67.544C33.0704 66.728 33.3104 66.032 33.7904 65.456L52.0784 42.776H37.0304C36.0704 42.776 35.2544 42.44 34.5824 41.768C33.9104 41.096 33.5744 40.28 33.5744 39.32C33.5744 38.36 33.9104 37.544 34.5824 36.872C35.2544 36.152 36.0704 35.792 37.0304 35.792H58.9184C59.9744 35.792 60.8144 36.152 61.4384 36.872C62.0624 37.544 62.3744 38.36 62.3744 39.32C62.3744 40.088 62.1344 40.784 61.6544 41.408L43.3664 64.088H59.4224C60.3824 64.088 61.1984 64.424 61.8704 65.096C62.5424 65.768 62.8784 66.584 62.8784 67.544C62.8784 68.456 62.5184 69.272 61.7984 69.992C61.1264 70.664 60.3344 71 59.4224 71H36.5264Z" fill="white"/>
</svg>
